<svg version="1.1" id="Layer_1" xmlns="http://www.w3.org/2000/svg" xmlns:xlink="http://www.w3.org/1999/xlink" x="0px" y="0px"
	 width="100%" viewBox="0 0 1024 1024" enable-background="new 0 0 1024 1024" xml:space="preserve">
<path fill="#000000" opacity="1.000000" stroke="none" 
	d="
M656.032166,322.863617 
	C665.444763,327.212555 674.675537,331.093506 683.551270,335.663971 
	C697.575806,342.885742 706.929199,354.166412 710.770325,369.622803 
	C713.313232,379.855560 708.931946,385.335815 698.508911,385.332855 
	C661.512695,385.322449 624.516479,385.299957 587.520264,385.272156 
	C585.354980,385.270508 583.163086,385.378418 581.030579,385.088806 
	C577.454895,384.603271 574.464233,383.168152 574.732666,378.837860 
	C574.981567,374.823792 576.463623,372.146698 581.215088,371.557281 
	C601.128235,369.087128 621.114685,369.729126 641.087524,369.677856 
	C656.752502,369.637634 672.417664,369.681366 688.082703,369.653656 
	C689.712524,369.650757 691.421204,370.044830 693.582764,368.681580 
	C692.061523,363.251556 688.718994,358.908142 684.506226,355.148499 
	C677.389587,348.797333 668.497437,345.560822 659.932434,342.026154 
	C629.106018,329.304443 600.690308,312.398102 573.579041,293.180054 
	C570.407898,290.932190 568.486572,290.680328 565.728699,293.746735 
	C556.037659,304.522003 546.077026,315.054688 536.248596,325.707031 
	C535.389893,326.637695 534.092529,327.345551 534.150391,329.564667 
	C561.532471,334.415161 589.028503,339.285797 616.524475,344.156464 
	C616.546448,344.702881 616.568359,345.249329 616.590332,345.795746 
	C589.074707,349.792053 561.559082,353.788330 533.186768,357.909058 
	C538.539001,367.026550 545.618591,374.183075 551.471436,382.183777 
	C551.168030,382.529999 550.864563,382.876221 550.561157,383.222412 
	C541.580017,377.584717 532.598877,371.947052 522.816345,365.806274 
	C518.643311,390.887909 514.639343,414.953125 510.635376,439.018311 
	C510.189789,439.039001 509.744202,439.059662 509.298645,439.080322 
	C505.195679,415.005005 501.092712,390.929688 496.777954,365.611694 
	C465.443085,394.102448 435.104034,421.687744 404.758118,449.279297 
	C401.525604,446.681183 403.264038,444.990326 404.674957,443.410706 
	C419.767487,426.513641 434.856995,409.613739 450.009674,392.770691 
	C459.702454,381.996552 469.504395,371.320648 479.238251,360.583344 
	C479.886505,359.868286 480.372345,359.005981 481.632507,357.223999 
	C459.168793,353.648407 437.414795,350.185791 415.660797,346.723145 
	C415.633881,346.200562 415.606964,345.677948 415.580048,345.155334 
	C439.248871,341.368134 462.917725,337.580902 487.723175,333.611816 
	C481.319916,326.054871 475.549988,319.245392 469.780060,312.435883 
	C470.091705,312.067444 470.403351,311.699005 470.715027,311.330566 
	C479.400970,316.299835 488.086914,321.269104 497.807709,326.830414 
	C501.681458,303.729706 505.441040,281.310028 509.200592,258.890381 
	C509.651276,258.837006 510.101990,258.783661 510.552704,258.730286 
	C513.895264,276.928864 517.237854,295.127411 520.709778,314.030334 
	C531.767456,301.950714 542.485168,290.242432 553.722229,277.966888 
	C543.520264,269.534302 536.138000,258.465393 524.547607,252.145157 
	C514.954651,246.914093 505.124847,246.962769 495.493103,252.471481 
	C491.123322,254.970734 487.023590,257.922424 483.613434,261.554169 
	C450.795990,296.503845 409.929077,319.282318 367.013275,339.004395 
	C359.751221,342.341675 352.487396,345.684448 345.329376,349.236328 
	C337.065674,353.336853 331.840363,360.263550 327.868927,368.351654 
	C329.896942,370.463440 332.197693,369.618530 334.215851,369.622223 
	C369.878754,369.687408 405.541779,369.664398 441.204803,369.685394 
	C447.929382,369.689362 450.351349,371.595764 450.903107,377.112518 
	C451.345612,381.536835 448.586029,384.911591 444.159943,385.293030 
	C443.000946,385.392914 441.828247,385.346344 440.661865,385.346313 
	C401.165924,385.345093 361.669952,385.350189 322.174011,385.331696 
	C312.358032,385.327087 308.041687,379.831879 310.159882,370.122406 
	C314.108704,352.021545 325.587280,340.383148 342.020050,332.980682 
	C359.331879,325.182281 376.826599,317.667999 393.370117,308.375916 
	C420.968933,292.874359 448.425659,277.075867 470.219391,253.307938 
	C478.280792,244.516357 487.893311,237.567520 499.806824,234.583145 
	C502.308350,233.956482 502.584656,232.179214 502.676819,230.016571 
	C502.895844,224.877289 502.262665,219.742050 503.319885,214.586609 
	C505.201508,205.410919 510.012970,198.396240 517.790222,193.328781 
	C520.580811,191.510452 523.505737,189.887527 526.219482,187.963959 
	C534.834778,181.857178 539.212036,173.655518 537.192871,163.013367 
	C535.093628,151.949112 526.117554,143.302231 515.514832,141.367966 
	C497.576538,138.095505 483.992981,149.037048 481.406494,168.842300 
	C480.657837,174.574570 477.784088,177.704086 473.713348,177.220123 
	C469.232697,176.687393 466.642212,172.617950 467.240784,167.052200 
	C469.753357,143.688354 482.244904,129.808395 504.708008,126.315292 
	C520.218323,123.903381 540.674438,132.315582 549.214966,151.778732 
	C556.126343,167.529297 551.548767,186.518448 537.806641,197.838120 
	C534.712830,200.386536 531.309753,202.454926 527.867554,204.510345 
	C518.973083,209.821518 514.311951,222.486267 517.462036,231.993454 
	C517.957336,233.488342 519.020203,234.198883 520.338806,234.428726 
	C532.578247,236.562134 540.981750,244.682877 549.345764,252.884705 
	C553.151245,256.616272 557.077515,260.231415 560.753357,264.085876 
	C563.335083,266.792969 565.083862,266.672913 567.498657,263.698364 
	C579.360596,249.087158 591.336853,234.566681 603.430176,220.146225 
	C609.424438,212.998474 615.680481,206.035202 623.476562,200.741043 
	C629.649658,196.548996 635.753601,196.542847 640.585876,200.461990 
	C645.421509,204.383850 646.670166,211.096161 643.810120,217.787094 
	C641.891602,222.275421 638.549194,225.820892 635.797302,229.587296 
	C636.053650,231.316971 637.323975,231.961609 638.359802,232.724579 
	C648.351746,240.084457 655.003357,249.797256 659.028564,261.472626 
	C660.380188,265.393066 662.108765,269.197723 663.865845,272.961548 
	C669.054871,284.076294 677.975769,290.413055 689.879028,292.569427 
	C693.321350,293.193024 695.868896,294.361023 695.136658,298.225739 
	C694.372131,302.261047 691.208008,302.881683 687.767273,302.021759 
	C672.843567,298.291870 660.770142,290.784393 654.214783,276.181213 
	C651.351501,269.802551 648.634460,263.358154 645.764893,256.982391 
	C642.759521,250.304901 638.667297,244.614288 631.837280,241.217590 
	C628.389038,239.502747 625.636414,239.280960 622.281311,241.829971 
	C608.185791,252.539124 595.590027,264.941223 582.360474,276.625549 
	C581.634705,277.266510 580.840881,277.968292 580.873169,279.800140 
	C604.675354,295.587494 628.982605,311.206787 656.032166,322.863617 
M626.682800,213.197861 
	C617.192810,220.426132 605.426025,234.165863 602.285034,241.806808 
	C605.454468,238.831787 610.429382,237.279266 611.459473,233.419556 
	C612.927490,227.918564 616.630432,226.358475 621.003296,224.538986 
	C626.736206,222.153580 630.184082,217.645538 632.210388,211.688156 
	C629.730530,211.077087 628.510254,212.016861 626.682800,213.197861 
z"/>
<path fill="#000000" opacity="1.000000" stroke="none" 
	d="
M366.746277,568.613098 
	C352.013885,592.353638 330.641083,603.116943 303.394562,604.520264 
	C265.705475,606.461548 232.796432,578.913269 227.931976,540.085266 
	C222.274475,494.927124 256.063141,463.984528 288.697998,459.602264 
	C310.467712,456.679016 330.948059,459.860046 348.502441,474.000946 
	C364.383911,486.794250 373.342804,503.535339 375.431366,523.975952 
	C377.033966,539.660461 374.282501,554.389404 366.746277,568.613098 
M331.000885,583.496155 
	C334.463989,578.792358 337.503571,573.898010 339.618774,568.373291 
	C345.494659,553.025696 345.823669,537.040039 344.388519,521.113342 
	C343.174591,507.641907 339.306274,494.657227 331.559479,483.221832 
	C321.023346,467.668945 303.768616,461.985657 287.524170,468.836823 
	C278.898285,472.474823 272.841644,479.047729 268.314636,487.075470 
	C262.392853,497.576538 260.116119,509.089111 258.963776,520.940613 
	C257.316925,537.877380 258.388519,554.520020 264.622620,570.486389 
	C277.389526,603.184387 314.961548,603.585571 331.000885,583.496155 
z"/>
<path fill="#000000" opacity="1.000000" stroke="none" 
	d="
M157.651489,691.948242 
	C156.712906,652.194153 187.515137,622.302185 223.750458,619.541870 
	C253.656357,617.263672 277.920624,627.195068 294.298065,652.771240 
	C322.500824,696.814697 295.784698,754.710266 244.077026,762.435608 
	C203.378952,768.516174 168.377563,745.153259 159.269791,705.761719 
	C158.260345,701.395752 157.440598,696.965210 157.651489,691.948242 
M196.787231,732.719543 
	C204.125839,747.562439 215.687302,756.722961 232.585983,756.228638 
	C251.451248,755.676941 263.079712,744.693542 269.251495,727.349426 
	C272.001678,719.620911 273.695831,711.653625 274.244232,703.509216 
	C275.512054,684.679688 274.043304,666.188293 265.200104,649.079834 
	C260.015442,639.049438 252.750275,630.925293 241.423843,627.531372 
	C223.537994,622.171875 204.840836,630.583252 196.332077,648.917969 
	C183.539307,676.483948 184.803970,704.354797 196.787231,732.719543 
z"/>
<path fill="#000000" opacity="1.000000" stroke="none" 
	d="
M312.668579,718.753723 
	C312.076202,706.298096 313.823853,694.842407 319.231201,683.919067 
	C328.824127,664.540588 352.506287,650.127991 377.398102,657.439758 
	C379.866760,658.164917 382.293884,659.552246 385.461517,658.939331 
	C385.461517,651.981445 385.865570,645.009277 385.312195,638.113831 
	C384.972351,633.878967 382.375305,630.451233 378.118195,628.597839 
	C376.452698,627.872681 374.058777,627.645813 373.894043,624.278992 
	C385.658875,619.967529 397.880310,616.887634 410.016388,614.118042 
	C411.885956,616.463928 411.284729,618.715576 411.288696,620.805298 
	C411.350677,653.276184 411.320435,685.747192 411.414001,718.217896 
	C411.431732,724.368713 412.017883,730.516357 412.111389,736.668884 
	C412.201141,742.571960 414.865173,746.420349 420.439972,748.313660 
	C421.798615,748.775024 423.511414,748.885193 423.489777,750.984802 
	C423.465820,753.309082 421.552368,753.597595 420.032104,753.891418 
	C410.093201,755.812561 400.109894,757.506836 390.182800,759.484558 
	C386.861511,760.146240 385.442902,759.246338 385.639038,755.830322 
	C385.742371,754.030518 385.657318,752.219849 385.657318,750.473755 
	C383.219452,749.775879 382.195129,751.493469 380.999481,752.397888 
	C352.816132,773.715759 321.746887,757.351746 313.894073,726.580872 
	C313.281738,724.181396 313.071259,721.679321 312.668579,718.753723 
M338.389465,697.971802 
	C337.910431,707.851318 338.466553,717.590393 342.403015,726.852600 
	C349.102112,742.615051 365.659943,751.873596 382.196167,740.952698 
	C385.365448,738.859558 386.665985,736.722290 386.674011,732.925293 
	C386.707794,716.956177 385.368774,701.013855 386.288422,685.012329 
	C386.700500,677.842712 384.092316,671.321472 377.390656,667.122375 
	C366.082001,660.036499 352.776794,663.652893 345.331329,675.863098 
	C341.335693,682.415710 339.799347,689.695312 338.389465,697.971802 
z"/>
<path fill="#000000" opacity="1.000000" stroke="none" 
	d="
M395.629211,553.999878 
	C395.634949,545.003235 395.693848,536.506104 395.630096,528.010010 
	C395.567566,519.675049 392.885437,516.022766 384.871765,513.330872 
	C383.166229,512.757996 381.678741,512.256592 381.821472,510.087769 
	C381.977844,507.712250 383.867950,507.852478 385.477966,507.593506 
	C395.473999,505.985870 405.472290,504.391815 415.464996,502.763702 
	C419.518646,502.103210 420.216187,504.375153 420.208801,507.728210 
	C420.175049,523.055298 420.254395,538.382507 420.285675,553.709717 
	C420.298950,560.206848 420.557770,566.716736 420.244598,573.198547 
	C419.508057,588.444275 434.637360,595.723694 446.633179,589.426636 
	C455.016266,585.026123 461.656586,579.200195 460.871338,567.698669 
	C459.942993,554.100952 460.572662,540.390137 460.700684,526.729919 
	C460.763245,520.056458 458.297028,513.925781 450.619659,513.031189 
	C449.204346,512.866272 447.625061,512.201355 447.484619,510.307831 
	C447.384003,508.951202 448.055420,508.077515 449.433350,507.878571 
	C461.064606,506.199249 472.697510,504.531250 484.165894,502.883453 
	C485.882050,505.142273 485.317993,507.386627 485.322479,509.484802 
	C485.368011,530.809692 485.354828,552.134766 485.350708,573.459778 
	C485.349915,577.622375 485.740723,581.752808 486.047882,585.899048 
	C486.463928,591.515930 489.121613,594.882507 494.230957,596.551575 
	C496.141998,597.175903 497.732269,597.807007 497.241058,600.261780 
	C496.772949,602.601135 494.866516,602.312805 493.278473,602.265686 
	C483.794983,601.984619 474.315186,601.575623 464.831268,601.314148 
	C462.166565,601.240662 461.436249,599.578857 461.184784,597.463257 
	C460.856720,594.703491 460.682404,591.925415 460.399414,588.665588 
	C457.258362,589.871033 455.386322,592.001221 453.278870,593.736877 
	C443.094604,602.124390 431.633850,605.789368 418.454803,603.422791 
	C405.180115,601.039062 395.989838,590.505920 395.687988,576.990784 
	C395.520599,569.497070 395.639008,561.997070 395.629211,553.999878 
z"/>
<path fill="#000000" opacity="1.000000" stroke="none" 
	d="
M582.653442,518.337830 
	C583.187073,513.592224 580.885315,512.249084 577.038330,512.366699 
	C574.876526,512.432739 572.706238,512.367004 570.544922,512.258484 
	C568.443115,512.152954 567.781006,510.799835 567.756348,508.870453 
	C567.730042,506.810944 568.689392,505.988281 570.705078,505.678467 
	C573.875854,505.191071 578.121155,507.380768 579.987427,504.158295 
	C581.400391,501.718506 580.654358,498.013367 580.820496,494.868805 
	C582.911438,455.290009 626.729675,445.834808 649.484375,457.239685 
	C657.807190,461.411163 660.350403,467.653900 656.354370,474.562805 
	C652.933228,480.477814 642.256897,482.958038 636.303223,479.341156 
	C634.623169,478.320496 634.443970,476.648132 633.906433,475.148651 
	C632.553406,471.374268 631.376465,467.445862 628.218140,464.775299 
	C624.448669,461.587921 620.151855,460.393677 615.204224,462.128571 
	C609.564514,464.106140 606.694946,468.260834 605.423767,473.785126 
	C603.213501,483.390167 605.195007,493.022644 605.319946,502.643280 
	C605.357239,505.505707 607.336182,505.657379 609.476440,505.653564 
	C615.974304,505.641937 622.472168,505.653809 628.970032,505.665619 
	C631.236755,505.669739 633.360535,505.705353 633.285706,508.977295 
	C633.211670,512.213501 631.040344,512.209167 628.812378,512.219849 
	C622.481262,512.250305 616.148743,512.321228 609.819336,512.216614 
	C606.671753,512.164612 605.140930,513.345581 605.351013,516.609192 
	C606.796570,539.071899 605.942627,561.571411 606.445129,584.047974 
	C606.598267,590.898743 609.857117,594.439453 616.672974,596.522644 
	C618.527893,597.089661 621.050964,596.996521 620.808777,599.826782 
	C620.528259,603.105652 617.754761,602.302063 615.752747,602.310181 
	C601.924133,602.365967 588.094971,602.373230 574.266663,602.286499 
	C572.472595,602.275269 569.794434,603.259705 569.310303,600.402771 
	C568.902405,597.995422 570.873230,597.181885 572.962891,596.488586 
	C579.793152,594.222473 581.541992,588.576843 581.667847,582.246338 
	C581.919495,569.587402 581.903809,556.923340 582.080566,544.262573 
	C582.199158,535.772034 582.458862,527.283447 582.653442,518.337830 
z"/>
<path fill="#000000" opacity="1.000000" stroke="none" 
	d="
M794.029968,688.846313 
	C791.807190,683.767090 789.826294,678.997986 787.660889,674.314148 
	C785.139771,668.860718 781.637207,664.305969 775.569641,662.436523 
	C773.964294,661.941895 772.797485,661.120544 773.079224,659.280518 
	C773.361511,657.437744 774.850586,656.927612 776.423523,656.919189 
	C789.917480,656.846985 803.418213,656.334839 816.898499,657.216309 
	C818.483887,657.319946 820.946594,656.897278 821.455627,659.348267 
	C821.986328,661.903931 819.640198,662.128113 818.059570,662.864807 
	C814.566406,664.492554 813.479492,667.616699 814.535095,670.799316 
	C820.856628,689.858948 827.448975,708.828735 833.881165,727.626038 
	C835.585266,727.627075 835.904663,726.751892 836.244263,726.051758 
	C842.856140,712.418762 849.450317,698.775269 855.069946,684.692871 
	C856.362488,681.453979 857.360046,678.120789 857.937622,674.636353 
	C858.966003,668.432434 857.644043,665.755676 851.922607,663.291016 
	C850.171692,662.536804 847.710876,662.277466 848.254395,659.447876 
	C848.761658,656.807190 851.019958,656.893494 853.012329,656.875061 
	C861.011536,656.800964 869.011536,656.751038 877.010803,656.786621 
	C878.726257,656.794312 880.891907,656.278442 881.492981,658.831299 
	C882.060791,661.243103 880.363892,661.905457 878.594604,662.719604 
	C874.358337,664.669006 872.442688,668.691223 870.463196,672.523743 
	C861.282227,690.299194 853.872131,708.872009 845.927368,727.205994 
	C838.578125,744.165955 831.294312,761.166321 822.220154,777.311584 
	C817.760132,785.247070 812.256165,792.270203 804.485657,797.293945 
	C799.397339,800.583618 793.905090,802.067810 787.857239,801.348511 
	C782.260559,800.682922 778.727722,797.109558 778.653381,792.038757 
	C778.572632,786.529907 782.391296,782.335938 788.082703,781.691406 
	C791.716736,781.279785 795.405701,781.143494 798.976501,780.421387 
	C809.865417,778.219666 816.911377,771.509277 820.868103,761.264465 
	C821.592102,759.390198 821.466553,757.806702 820.709839,756.010071 
	C811.407288,733.922302 803.875854,711.130981 794.029968,688.846313 
z"/>
<path fill="#000000" opacity="1.000000" stroke="none" 
	d="
M432.995728,797.011719 
	C427.613434,790.041992 428.281464,782.643188 434.300629,779.065613 
	C437.254700,777.309814 440.225677,777.572876 443.429871,778.458740 
	C456.313080,782.020508 467.549774,775.378662 471.000336,762.470642 
	C471.448273,760.794983 470.939850,759.534180 470.345978,758.199036 
	C457.970551,730.377747 445.585114,702.560974 433.171936,674.756531 
	C430.626312,669.054565 426.960083,664.528503 420.438660,663.099182 
	C418.902313,662.762390 417.609222,661.966492 417.866516,660.018677 
	C418.134308,657.991699 419.719360,657.840942 421.228760,657.837830 
	C435.551666,657.808655 449.874695,657.813354 464.197601,657.838318 
	C465.725250,657.841003 467.293793,658.021484 467.684265,659.938843 
	C468.042450,661.697388 466.719421,662.264526 465.461334,662.735596 
	C460.265320,664.680786 459.638947,668.499268 460.931610,673.270386 
	C465.390808,689.729004 472.691742,705.066772 479.577881,720.562805 
	C480.965393,723.685059 481.960815,727.079773 484.514587,730.185181 
	C488.057495,723.767822 490.034393,717.242554 492.396423,710.906433 
	C496.399078,700.169434 500.946533,689.603699 503.226746,678.285034 
	C504.731964,670.813477 503.384796,667.381042 496.811005,663.311401 
	C495.317474,662.386719 494.511749,661.431030 494.937775,659.729492 
	C495.337250,658.134094 496.688202,657.812256 498.062897,657.808594 
	C507.056030,657.784424 516.049316,657.786987 525.042419,657.826477 
	C526.423340,657.832520 527.723083,658.191528 528.011536,659.883484 
	C528.302124,661.587891 527.162354,662.296631 525.870056,662.783691 
	C520.763977,664.707886 518.036682,668.878418 516.046326,673.539551 
	C505.331177,698.632812 494.838867,723.821838 484.014801,748.867676 
	C478.542389,761.530334 473.447083,774.431824 465.402405,785.803711 
	C461.513611,791.300903 456.914795,796.222656 450.591675,798.841919 
	C444.703064,801.281250 438.652740,802.054504 432.995728,797.011719 
z"/>
<path fill="#000000" opacity="1.000000" stroke="none" 
	d="
M697.314819,736.481934 
	C687.980896,714.394836 688.210022,693.251099 702.713928,673.830750 
	C713.008911,660.046143 736.404480,649.170044 754.772644,657.427124 
	C770.113403,664.323303 776.842896,676.832336 779.178528,692.558594 
	C779.569275,695.189148 778.047241,696.154114 775.650635,696.173950 
	C772.652527,696.198853 769.654358,696.255554 766.656250,696.257019 
	C751.164185,696.264648 735.671326,696.341370 720.180603,696.197571 
	C716.497559,696.163330 715.140930,697.390076 715.297058,701.113647 
	C715.702637,710.784912 717.793579,719.993347 723.357056,727.972351 
	C733.904175,743.098816 755.888245,750.061096 773.075195,731.638062 
	C774.423767,730.192505 775.702759,728.681946 777.026733,727.187439 
	C780.136414,728.222595 780.771973,729.964539 779.381042,732.580383 
	C771.459839,747.477234 761.016663,759.526550 743.007996,761.215881 
	C722.697510,763.120911 707.619995,754.365479 697.314819,736.481934 
M739.869324,661.672424 
	C727.146118,660.739075 717.092529,672.438843 717.213989,688.720276 
	C726.449890,688.720276 735.707825,688.717407 744.965759,688.721008 
	C757.298401,688.725891 757.268311,688.736267 753.907715,676.484680 
	C751.948425,669.342041 748.528381,663.602356 739.869324,661.672424 
z"/>
<path fill="#000000" opacity="1.000000" stroke="none" 
	d="
M540.576904,661.427612 
	C554.927856,653.196655 569.822266,653.469788 584.933044,657.005310 
	C598.488464,660.176880 598.460144,660.320374 598.418518,674.279297 
	C598.407104,678.111145 598.387817,681.943604 598.300659,685.774170 
	C598.271301,687.063538 598.416016,688.635742 596.692932,689.027588 
	C594.841003,689.448608 594.067688,688.153076 593.395630,686.688904 
	C590.820618,681.079285 588.017517,675.634583 583.832581,670.963684 
	C577.401428,663.785828 569.476624,660.972595 560.039185,662.370850 
	C554.475952,663.195068 550.377625,666.178650 548.729004,671.650269 
	C547.153503,676.878967 550.018616,680.601318 553.798767,683.738770 
	C559.499756,688.470764 566.246704,691.417725 572.766235,694.751099 
	C578.989014,697.932800 585.392334,700.785767 591.033508,705.014648 
	C602.244995,713.419189 606.031250,724.736145 603.111755,738.068542 
	C600.338257,750.734558 591.236267,757.462891 579.122253,759.948792 
	C563.721191,763.109314 548.691101,761.539551 534.304016,754.789795 
	C531.536011,753.491211 530.269775,752.000854 530.453308,748.743286 
	C530.799622,742.596497 530.599609,736.419617 530.664124,730.255676 
	C530.680969,728.647095 530.392395,726.954590 531.555176,725.234741 
	C534.429138,725.667786 535.003357,728.256165 536.096680,730.058594 
	C540.008362,736.507141 544.080139,742.855713 550.368652,747.224915 
	C558.663513,752.988220 567.515076,756.228333 577.458435,751.215637 
	C587.361633,746.223083 588.480225,735.360840 579.776978,728.557617 
	C574.212097,724.207581 567.587952,721.742859 561.399780,718.511841 
	C553.427734,714.349426 545.239014,710.553650 538.682434,704.167480 
	C526.100037,691.912170 526.860718,671.827698 540.576904,661.427612 
z"/>
<path fill="#000000" opacity="1.000000" stroke="none" 
	d="
M664.818787,744.543396 
	C666.820374,736.060730 665.560120,731.831055 658.609741,727.598999 
	C651.660889,723.368042 644.236450,719.918152 637.019836,716.127197 
	C630.663696,712.788208 624.404602,709.251343 619.433350,703.972290 
	C611.260010,695.292847 609.479126,684.909790 612.789978,673.825500 
	C616.315125,662.023499 626.221252,658.039978 637.057068,655.765259 
	C650.045959,653.038696 662.488098,655.630066 674.732666,659.931580 
	C677.954834,661.063416 679.447510,662.950439 679.347595,666.592224 
	C679.143677,674.029175 679.018250,681.447510 677.709290,688.751770 
	C674.450500,689.487244 674.315308,686.888855 673.556396,685.291321 
	C670.613525,679.097229 667.504700,673.041565 662.324585,668.337158 
	C656.284485,662.851807 649.367859,660.396729 641.231750,662.291260 
	C636.061890,663.495056 631.813782,666.097046 630.481018,671.523804 
	C629.029480,677.434448 631.724792,681.793945 636.615723,685.077942 
	C645.909546,691.318237 656.197083,695.737366 665.911926,701.204163 
	C682.215637,710.378601 688.423767,727.554932 681.204346,743.609314 
	C676.636841,753.766663 667.869568,758.105042 657.710632,760.181580 
	C643.025024,763.183472 628.968445,760.567810 615.334595,754.800171 
	C612.203857,753.475769 610.651062,751.499451 610.789246,747.944092 
	C611.077759,740.519531 610.263794,733.023804 612.203552,725.788635 
	C614.474548,725.242310 614.894226,726.883362 615.714050,728.097473 
	C618.786804,732.648132 621.554626,737.469482 625.100464,741.622742 
	C632.696533,750.520081 642.193665,755.188660 654.220093,752.683472 
	C658.851746,751.718689 662.431824,749.170471 664.818787,744.543396 
z"/>
<path fill="#000000" opacity="1.000000" stroke="none" 
	d="
M529.674500,480.658783 
	C530.944763,478.648865 532.027588,476.516144 534.413147,477.294098 
	C536.575562,477.999298 536.075012,480.350250 536.114502,482.089233 
	C536.254456,488.246887 536.444275,494.414215 536.236633,500.565125 
	C536.101318,504.576416 537.719299,505.841003 541.535950,505.704926 
	C547.355408,505.497467 553.188049,505.670319 559.014954,505.653564 
	C561.388489,505.646759 563.259033,505.968109 563.311035,509.083435 
	C563.362061,512.138245 561.988159,513.269653 559.113281,513.252014 
	C552.953674,513.214233 546.791504,513.360291 540.634583,513.229614 
	C537.402344,513.161072 536.242615,514.444458 536.252808,517.654480 
	C536.316040,537.631531 536.108948,557.610229 536.282349,577.585815 
	C536.377808,588.590393 542.735962,592.938171 553.142151,589.436462 
	C555.955261,588.489929 558.597107,586.986755 561.234131,585.582520 
	C562.871765,584.710388 564.044922,584.973755 565.111145,586.398804 
	C566.034546,587.632935 565.924316,588.659668 565.031311,589.981384 
	C557.910583,600.520874 541.702393,606.708740 529.195740,603.562073 
	C519.201294,601.047485 513.726257,594.346130 512.582397,584.234619 
	C511.736450,576.756348 511.797699,569.296204 511.784271,561.813843 
	C511.757935,547.163208 511.595215,532.511475 511.736206,517.862549 
	C511.775146,513.822266 510.566986,511.877014 506.354797,512.367004 
	C505.372681,512.481323 504.360626,512.322510 503.362122,512.314941 
	C501.625610,512.301819 500.567902,511.438141 500.124481,509.782532 
	C499.612183,507.869873 500.784607,507.123596 502.290253,506.466431 
	C514.369324,501.194580 523.014709,492.240845 529.674500,480.658783 
z"/>
<path fill="#000000" opacity="1.000000" stroke="none" 
	d="
M722.651306,580.836182 
	C722.652344,560.044189 722.660156,539.731262 722.651978,519.418396 
	C722.649475,513.158264 722.302002,512.817383 715.888550,512.433777 
	C714.726562,512.364319 713.554993,512.391541 712.401672,512.256104 
	C710.871826,512.076355 710.055298,511.072662 709.870239,509.603760 
	C709.704590,508.287933 710.328918,507.344330 711.555969,506.868164 
	C725.029907,501.639954 733.580811,491.209106 740.750427,479.302795 
	C741.658569,477.794617 742.934692,476.597412 744.837036,477.212769 
	C746.718994,477.821472 746.280273,479.639160 746.301697,481.059418 
	C746.402039,487.718018 746.467651,494.377808 746.463562,501.037109 
	C746.461487,504.348450 747.800720,505.816193 751.290161,505.699585 
	C757.277344,505.499512 763.276184,505.643677 769.270142,505.650757 
	C771.802856,505.653748 774.331116,505.359985 774.347778,509.268524 
	C774.365051,513.307495 771.846802,513.310852 769.020691,513.299927 
	C763.026855,513.276794 757.031372,513.383911 751.039551,513.274597 
	C747.690979,513.213501 746.276428,514.465637 746.297058,517.966675 
	C746.410767,537.279907 746.177368,556.596619 746.443054,575.906921 
	C746.623535,589.023254 754.744263,593.943176 766.960205,588.831970 
	C767.420532,588.639404 767.866394,588.336914 768.343872,588.273315 
	C770.768372,587.950806 773.050659,583.620056 775.210205,586.636414 
	C777.645752,590.038269 773.179993,591.649902 771.338501,593.497620 
	C764.385193,600.474670 756.027100,604.464905 745.926331,604.357666 
	C731.762695,604.207214 722.943909,595.543030 722.651306,580.836182 
z"/>
<path fill="#000000" opacity="1.000000" stroke="none" 
	d="
M703.557800,602.221436 
	C688.779785,602.277039 674.452148,602.310059 660.124817,602.257751 
	C658.447388,602.251587 656.095581,603.089294 655.501038,600.560608 
	C654.930420,598.133606 656.642517,597.131042 658.728699,596.327393 
	C666.216614,593.442810 668.510315,587.147888 668.586914,579.923340 
	C668.765503,563.098389 668.659241,546.270325 668.650024,529.443481 
	C668.647095,524.182373 666.088013,520.314087 662.025208,517.195862 
	C660.518005,516.039062 658.290161,515.501587 657.828552,512.260681 
	C668.393921,507.438904 679.999390,505.897369 691.078186,502.988007 
	C692.918396,505.267120 692.299805,507.515564 692.303345,509.593597 
	C692.343140,533.084473 692.306641,556.575439 692.312744,580.066345 
	C692.315613,591.148987 693.330811,592.565247 703.689392,597.029236 
	C706.929260,598.425415 707.512939,600.235291 703.557800,602.221436 
z"/>
<path fill="#000000" opacity="1.000000" stroke="none" 
	d="
M684.769409,467.660217 
	C693.463501,472.382965 696.137512,480.344482 691.873352,487.779938 
	C687.596191,495.238159 677.704468,497.556488 670.107788,492.881073 
	C664.944763,489.703369 662.375061,483.168549 663.957336,477.240265 
	C665.451172,471.642975 670.881104,467.010254 676.532776,466.695831 
	C679.170410,466.549072 681.870544,466.292999 684.769409,467.660217 
z"/>
</svg>